inDegrees=no
num_controls=7
num_derivatives=13
num_iterations=165
num_multipliers=7
num_parameters=0
num_slacks=7
num_states=26
objective=5.790086
objective_accelerations=0.678831
objective_balance=0.019459
objective_effort=0.486125
objective_height=4.535118
objective_ligament=0.070553
solver_duration=1464.233862
status=Solve_Succeeded
success=true
DataType=double
version=3
OpenSimVersion=4.4-2022-07-23-0e9fedc
endheader
time	/jointset/ground_pelvis/pelvis_tilt/value	/jointset/ground_pelvis/pelvis_tx/value	/jointset/ground_pelvis/pelvis_ty/value	/jointset/hip_r/hip_flexion_r/value	/jointset/hip_r/hip_adduction_r/value	/jointset/hip_r/hip_rotation_r/value	/jointset/back/lumbar_extension/value	/jointset/patellofemoral_r/patellar_flexion_r/value	/jointset/knee_r/knee_flexion_r/value	/jointset/knee_r/knee_adduction_r/value	/jointset/knee_r/knee_rotation_r/value	/jointset/ankle_r/ankle_angle_r/value	/jointset/subtalar_r/subtalar_angle_r/value	/jointset/ground_pelvis/pelvis_tilt/speed	/jointset/ground_pelvis/pelvis_tx/speed	/jointset/ground_pelvis/pelvis_ty/speed	/jointset/hip_r/hip_flexion_r/speed	/jointset/hip_r/hip_adduction_r/speed	/jointset/hip_r/hip_rotation_r/speed	/jointset/back/lumbar_extension/speed	/jointset/patellofemoral_r/patellar_flexion_r/speed	/jointset/knee_r/knee_flexion_r/speed	/jointset/knee_r/knee_adduction_r/speed	/jointset/knee_r/knee_rotation_r/speed	/jointset/ankle_r/ankle_angle_r/speed	/jointset/subtalar_r/subtalar_angle_r/speed	/forceset/tau_hip_flexion_r	/forceset/tau_hip_adduction_r	/forceset/tau_hip_rotation_r	/forceset/tau_knee_flexion_r	/forceset/tau_ankle_angle_r	/forceset/tau_subtalar_angle_r	/forceset/tau_lumbar_extension	lambda_cid13_p0	lambda_cid14_p0	lambda_cid14_p1	lambda_cid14_p2	lambda_cid14_p3	lambda_cid14_p4	lambda_cid14_p5	/jointset/ground_pelvis/pelvis_tilt/accel	/jointset/ground_pelvis/pelvis_tx/accel	/jointset/ground_pelvis/pelvis_ty/accel	/jointset/hip_r/hip_flexion_r/accel	/jointset/hip_r/hip_adduction_r/accel	/jointset/hip_r/hip_rotation_r/accel	/jointset/back/lumbar_extension/accel	/jointset/patellofemoral_r/patellar_flexion_r/accel	/jointset/knee_r/knee_flexion_r/accel	/jointset/knee_r/knee_adduction_r/accel	/jointset/knee_r/knee_rotation_r/accel	/jointset/ankle_r/ankle_angle_r/accel	/jointset/subtalar_r/subtalar_angle_r/accel	gamma_cid13_p0	gamma_cid14_p0	gamma_cid14_p1	gamma_cid14_p2	gamma_cid14_p3	gamma_cid14_p4	gamma_cid14_p5
1.5	-0.09909074592148186	0.02611238813014734	0.8055028515206839	0.8624720252739516	-0.2219916210191772	-0.1287310725514936	-0.6324477233008682	0.9791327204947744	0.9791327204947869	-0.06334707615394844	0.1745317444839653	0.3109700558958687	0.1468370804259913	0.5072468465589549	0.2317529629446129	0.5575056231878611	-2.152631735067021	0.03274575672020003	-0.2073453268489342	0.8007117712706356	-2.064807792903976	-2.064807792904068	0.4451459658506119	-8.884517700073838e-06	-0.5265015831545192	-0.1644193105299043	-0.1697839997699656	-0.001947753107005552	0.01842396538703726	-0.3093478067066276	0.01356295954163105	0.004990095959045994	0.2196965471043845	-7.314558712609952	-37.14449635041527	-3.371280672984483	-0.1431430851589809	-3.445337563041579	-628.7706178844636	68.86753660296883	0.2240871924128174	0.6300221909617389	-0.5454742165350126	-1.095212572001456	-0.2100486140446705	-0.5085124321791795	1.928076443794994	-1.441767215666113	-1.441767215666113	0.5589588244001448	-0.0318922992331027	-0.7552277432815258	-0.4723184304775855	1.781477894050026e-07	1.10939346165495e-07	-1.416279768977865e-06	1.234503820721225e-06	8.235362077665479e-08	3.113079906766254e-07	-9.271034064157509e-07
1.51	-0.09400730844546408	0.02846114263230133	0.8110495100386736	0.8408929590431005	-0.2216757874641003	-0.1308299017165369	-0.6243460046282567	0.9584151540625789	0.9584151540625756	-0.0588659563279866	0.1745316464153149	0.3056677548769797	0.145167905254377	0.5093636750942225	0.2379660954293783	0.55170358241896	-2.162889397798714	0.03040822847405682	-0.2124468536138497	0.8195113714937897	-2.078414765413296	-2.078414765413345	0.4510260928301629	-7.036882944435669e-06	-0.5338715701374313	-0.1693788807533606	-0.1621748761839776	-0.002643133031498109	0.01820203081555181	-0.3047738860606302	0.01504519472303114	0.004032439493675274	0.2126453512685371	-8.326381035411838	-36.38036916156856	-3.548854020384	-0.2342469822304681	-3.427514672532328	-623.2951887998228	68.01990317575678	0.1939486100764826	0.6121919286779651	-0.6158729918329909	-0.9472068306298906	-0.2473807781694869	-0.5146113531851798	1.83781304792327	-1.276591721419031	-1.276591721412627	0.5945754048221213	0.0170375820501933	-0.7147730993594847	-0.5022743397990225	1.881855053908737e-07	1.358433280438046e-07	-1.342777539899489e-06	1.426838284720564e-06	5.921841714769716e-08	3.392006471121964e-07	-8.967135573854577e-07
1.52	-0.08890500909889541	0.03087107508959189	0.8165344873520213	0.8192200834435509	-0.2213836843611401	-0.132980473860141	-0.6160599077061452	0.9375702320147111	0.9375702320147172	-0.05432762807822294	0.174531729680379	0.3002943762035495	0.143450234776224	0.5110192206691989	0.2439885539719257	0.5451693822594443	-2.171393608805472	0.02799966629711421	-0.2176939225602698	0.8375874211708467	-2.090278916036778	-2.090278916036785	0.4565876506133018	2.738224062030023e-05	-0.5407171140628814	-0.1741183718375924	-0.1545657525980292	-0.003338512956025292	0.01798009624430389	-0.3001999654146093	0.0165274299044256	0.003074783028248802	0.2055941554326552	-9.402980616794293	-35.61010479066465	-3.716094034229922	-0.3375742797865067	-3.439273675895151	-617.7496066563651	67.24484458642554	0.1318306003546189	0.591887402518115	-0.6919060946579053	-0.7445222270146606	-0.2242554002045831	-0.5376208684801244	1.783366334575622	-1.093202838498594	-1.093202838498593	0.4952449851177094	-0.02537800147127528	-0.6503391317891645	-0.4283026026327025	1.871555569563183e-07	1.495419846128749e-07	-1.220552461785514e-06	1.525400973827303e-06	3.797157041907522e-08	3.521471673042537e-07	-8.419005176615013e-07
1.53	-0.08378859229854092	0.03334021478504415	0.8219505048135641	0.7974711504710821	-0.2211158684812072	-0.1351838605916697	-0.6075967608366429	0.9166155750647332	0.9166155750647307	-0.04973526404905671	0.1745318165512152	0.294855289628439	0.1416865515155894	0.512181582333566	0.249800450308418	0.5379183590352032	-2.178088741464852	0.02555332155300802	-0.2229996242158766	0.8548994637507643	-2.100347945660058	-2.100347945660065	0.4618367235841263	-8.540337836530977e-06	-0.5470056580701058	-0.1785775002160871	-0.146797959147334	-0.004556260518837871	0.01782936749893574	-0.2961012097121485	0.01828212212623847	0.002176083967462981	0.19841218019979	-10.50335383220139	-34.76689085011594	-3.835607814545956	-0.4591878222107304	-3.466121088717254	-612.4840699911337	66.69418908292222	0.09606959405571987	0.5700022137224632	-0.7589935598442104	-0.5863521895766198	-0.2561992565575967	-0.5291931199509758	1.683749872902639	-0.9181072832193586	-0.9181072832192618	0.5323520318659736	0.007790959157614383	-0.6038907691808102	-0.4485704318646676	1.7436621507506e-07	1.513349830408785e-07	-1.046559356571215e-06	1.524331152110658e-06	1.873110289705992e-08	3.492134177375781e-07	-7.611378378255279e-07
1.54	-0.07866302575262789	0.03586630573676299	0.8272905534181573	0.7756643974911783	-0.2208727910977263	-0.137440734000926	-0.598964768210702	0.8955693569667232	0.8955693569667248	-0.04509188657443325	0.1745316422653128	0.2893561618664583	0.1398795064758881	0.512849169781051	0.2553788052252403	0.5299756108694751	-2.18295761029131	0.02305196700715484	-0.2283912581054885	0.8713565724587907	-2.108591145642403	-2.108591145642408	0.466790339707001	-2.484910867596333e-05	-0.5527253514369997	-0.1827907276508547	-0.1390301656966767	-0.005774008081675993	0.01767863875370204	-0.2920024540096782	0.02003681434804579	0.001277384906632756	0.1912302049668925	-11.60398840217587	-33.92234122036776	-3.951326221420742	-0.5854750708891279	-3.506728416961804	-607.201978270833	66.20924431474687	0.03287575697825401	0.5451791185840594	-0.8302510829552723	-0.3792694604303667	-0.2352573605539673	-0.5548073152810877	1.612379560197419	-0.7280369103114689	-0.7280369103114618	0.4361536155276999	-0.02145523994788988	-0.5365690037230748	-0.379122413887219	1.68181276206661e-07	1.437853518773594e-07	-1.04202566231827e-06	1.449072629574651e-06	2.200021732747542e-08	3.471482243874804e-07	-7.768007192959438e-07
1.55	-0.07353330545139598	0.03844693206864646	0.8325477965635847	0.7538181832264749	-0.2206549131366581	-0.1397523960308864	-0.5901725535625099	0.8744498659945573	0.8744498659945753	-0.04040089385432786	0.1745315986328118	0.2838027304716874	0.1380317157962321	0.5130101002545504	0.2606990821732377	0.5213657694570794	-2.185970849440927	0.0205176312067684	-0.2339370571840851	0.8869319503415193	-2.114989229996122	-2.114989229996088	0.4713684253058513	7.538898732937097e-06	-0.557861501472227	-0.1867218509637019	-0.13135452989275	-0.006874400611376237	0.01755313283709715	-0.2880638105424779	0.02174646342387137	0.0001443862885566659	0.184127084436299	-12.70151710731114	-33.13867542755543	-4.198154266096277	-0.6695074007971679	-3.456509924452631	-602.2954858279996	65.52828806076509	-0.005007505489182297	0.518358621823105	-0.8923688857573406	-0.2151780527609757	-0.2633447169509829	-0.5535847274884494	1.506955876614698	-0.5480554583736861	-0.5480554583679305	0.4624967191959576	0.01449723222587455	-0.4871738242454846	-0.3933422165457871	1.696057582009041e-07	1.254713866192605e-07	-1.232738680694699e-06	1.288335821311994e-06	5.120428487699452e-08	3.460837588521353e-07	-9.035626170541497e-07
1.56	-0.0684045176850354	0.04107934249779313	0.837715737651813	0.7319512711881635	-0.22046254313903	-0.1421193397563047	-0.5812292173406303	0.8532759219267796	0.8532759219267804	-0.03566534814080444	0.1745316611626196	0.2782009304124003	0.1361459668981345	0.5126626628070506	0.2657356246778829	0.5121151994296413	-2.187097165011886	0.01795037431960108	-0.2394475971962629	0.9015808871964086	-2.119481764768706	-2.119481764768635	0.4757009383899961	-3.61664823154434e-06	-0.5623990843403727	-0.1903823713390438	-0.1236788940888565	-0.007974793141124264	0.0174276269203234	-0.2841251670752946	0.02345611249968599	-0.0009886123295921921	0.1770239639056814	-13.79145384226272	-32.35419965856916	-4.441184633006572	-0.7583215862287344	-3.416003021134332	-597.3840718932211	64.90949115877241	-0.06879782722152926	0.4884322299135521	-0.9583968059637292	-0.001884744698786756	-0.2418415779101233	-0.5477555019972968	1.42709135462958	-0.3469269940847015	-0.3469269940847031	0.3870391125865848	-0.03016395082261398	-0.4168555703067836	-0.3250018263861366	1.707118844817708e-07	1.065976959453849e-07	-1.427772296781388e-06	1.106618397246182e-06	8.083252187907699e-08	3.426845321948324e-07	-1.018572526376741e-06
1.57	-0.06328177353604855	0.04376063886838936	0.8427880700181511	0.710082580994591	-0.220295882508541	-0.1445419182019846	-0.572144161594381	0.8320665741195277	0.8320665741195359	-0.03088839952026116	0.1745317482566519	0.272556826343045	0.1342251891548462	0.5117985257981621	0.2704696791357307	0.5022539466442215	-2.186317348470414	0.01537917272004187	-0.2450581744515417	0.9152609162541848	-2.1220579482657	-2.122057948265617	0.4796468544718733	1.414445494363245e-05	-0.5663155890970334	-0.1937236647311422	-0.1159989706815849	-0.009336255470537125	0.01732485066919781	-0.2805695972345772	0.02535943380620058	-0.002164516862824276	0.1699534717354608	-14.86914720779626	-31.53977871059409	-4.700273086622443	-0.8415286153894805	-3.379589759288045	-592.9039293027363	64.36993859766453	-0.1083636408233056	0.4578221787697818	-1.014522048035382	0.1664513799531888	-0.2651673619067773	-0.5659802815199907	1.313056811483042	-0.1635211307837313	-0.1635211307820499	0.3918448073988229	0.01682457351873934	-0.3630643244022816	-0.3314483331288476	1.71420066120917e-07	8.702434850178844e-08	-1.628206660005901e-06	8.986752034264274e-07	1.109909706968636e-07	3.363668541350823e-07	-1.118892450154815e-06
